<svg width="458" height="330" viewBox="0 0 458 330" fill="none" xmlns="http://www.w3.org/2000/svg">
<g filter="url(#filter0_d_254_2963)">
<rect x="0.845215" width="446.31" height="319.11" rx="12.6631" fill="white" shape-rendering="crispEdges"/>
<rect x="26.1714" y="25.3262" width="395.657" height="268.458" rx="12.6631" fill="white"/>
<path d="M54.5891 49.2993H57.3592L62.5654 63.1867L67.7592 49.2993H70.5293L63.6536 67.3047H61.4524L54.5891 49.2993ZM53.3278 49.2993H55.9618L56.4193 61.3194V67.3047H53.3278V49.2993ZM69.1566 49.2993H71.803V67.3047H68.6991V61.3194L69.1566 49.2993ZM74.6225 60.7629V60.4785C74.6225 59.5139 74.7627 58.6194 75.043 57.795C75.3233 56.9623 75.7273 56.241 76.2549 55.6309C76.7908 55.0126 77.4421 54.5344 78.2088 54.1964C78.9837 53.8501 79.8576 53.677 80.8304 53.677C81.8115 53.677 82.6854 53.8501 83.4521 54.1964C84.227 54.5344 84.8825 55.0126 85.4183 55.6309C85.9542 56.241 86.3623 56.9623 86.6426 57.795C86.9229 58.6194 87.063 59.5139 87.063 60.4785V60.7629C87.063 61.7275 86.9229 62.622 86.6426 63.4464C86.3623 64.2708 85.9542 64.9922 85.4183 65.6105C84.8825 66.2206 84.2312 66.6987 83.4645 67.045C82.6977 67.383 81.828 67.552 80.8552 67.552C79.8741 67.552 78.9961 67.383 78.2211 67.045C77.4544 66.6987 76.8031 66.2206 76.2673 65.6105C75.7314 64.9922 75.3233 64.2708 75.043 63.4464C74.7627 62.622 74.6225 61.7275 74.6225 60.7629ZM77.6028 60.4785V60.7629C77.6028 61.3647 77.6647 61.9336 77.7883 62.4695C77.912 63.0053 78.1057 63.4753 78.3695 63.8792C78.6334 64.2832 78.9714 64.6006 79.3836 64.8314C79.7958 65.0623 80.2863 65.1777 80.8552 65.1777C81.4075 65.1777 81.8857 65.0623 82.2897 64.8314C82.7019 64.6006 83.0399 64.2832 83.3037 63.8792C83.5675 63.4753 83.7612 63.0053 83.8849 62.4695C84.0168 61.9336 84.0828 61.3647 84.0828 60.7629V60.4785C84.0828 59.8849 84.0168 59.3243 83.8849 58.7967C83.7612 58.2608 83.5634 57.7868 83.2913 57.3745C83.0275 56.9623 82.6895 56.6408 82.2773 56.41C81.8733 56.1709 81.391 56.0514 80.8304 56.0514C80.2698 56.0514 79.7834 56.1709 79.3712 56.41C78.9672 56.6408 78.6334 56.9623 78.3695 57.3745C78.1057 57.7868 77.912 58.2608 77.7883 58.7967C77.6647 59.3243 77.6028 59.8849 77.6028 60.4785ZM92.5166 56.781V67.3047H89.5363V53.9243H92.3435L92.5166 56.781ZM91.9848 60.1199L91.0203 60.1075C91.0285 59.1594 91.1604 58.2897 91.416 57.4982C91.6798 56.7068 92.0425 56.0266 92.5042 55.4578C92.9741 54.8889 93.5347 54.452 94.186 54.1469C94.8373 53.8337 95.5628 53.677 96.3625 53.677C97.0056 53.677 97.5868 53.7677 98.1062 53.9491C98.6338 54.1222 99.0831 54.4066 99.4541 54.8024C99.8333 55.1981 100.122 55.7133 100.32 56.3481C100.518 56.9747 100.617 57.7455 100.617 58.6606V67.3047H97.6239V58.6483C97.6239 58.0052 97.5291 57.4982 97.3394 57.1272C97.1581 56.748 96.8901 56.4801 96.5356 56.3234C96.1894 56.1585 95.7566 56.0761 95.2372 56.0761C94.726 56.0761 94.2685 56.1833 93.8645 56.3976C93.4605 56.612 93.1184 56.9046 92.8381 57.2756C92.5661 57.6466 92.3558 58.0753 92.2074 58.5617C92.059 59.0481 91.9848 59.5675 91.9848 60.1199ZM109.792 53.9243V56.1008H102.249V53.9243H109.792ZM104.425 50.6473H107.406V63.6072C107.406 64.0194 107.463 64.3368 107.579 64.5594C107.702 64.7737 107.871 64.918 108.086 64.9922C108.3 65.0664 108.552 65.1035 108.84 65.1035C109.046 65.1035 109.244 65.0911 109.434 65.0664C109.623 65.0417 109.776 65.0169 109.891 64.9922L109.904 67.2676C109.656 67.3418 109.368 67.4077 109.038 67.4654C108.716 67.5232 108.345 67.552 107.925 67.552C107.241 67.552 106.635 67.4325 106.107 67.1934C105.58 66.9461 105.167 66.5462 104.871 65.9939C104.574 65.4415 104.425 64.7078 104.425 63.7927V50.6473ZM115.036 48.31V67.3047H112.068V48.31H115.036ZM114.516 60.1199L113.552 60.1075C113.56 59.1841 113.688 58.3309 113.935 57.5477C114.191 56.7645 114.545 56.0843 114.999 55.5072C115.46 54.9219 116.013 54.4726 116.656 54.1593C117.299 53.8378 118.012 53.677 118.795 53.677C119.455 53.677 120.048 53.7677 120.576 53.9491C121.112 54.1305 121.573 54.4231 121.961 54.8271C122.348 55.2228 122.641 55.7422 122.839 56.3852C123.045 57.02 123.148 57.795 123.148 58.7101V67.3047H120.155V58.6854C120.155 58.0423 120.06 57.5312 119.871 57.152C119.689 56.7727 119.422 56.5007 119.067 56.3358C118.713 56.1626 118.28 56.0761 117.769 56.0761C117.233 56.0761 116.759 56.1833 116.346 56.3976C115.942 56.612 115.604 56.9046 115.332 57.2756C115.06 57.6466 114.854 58.0753 114.714 58.5617C114.582 59.0481 114.516 59.5675 114.516 60.1199ZM132.769 49.2993H139.138C140.506 49.2993 141.673 49.5055 142.637 49.9177C143.602 50.3299 144.34 50.9399 144.851 51.7479C145.37 52.5476 145.63 53.5369 145.63 54.7158C145.63 55.6144 145.465 56.4059 145.135 57.0901C144.805 57.7744 144.34 58.3515 143.738 58.8214C143.136 59.2831 142.419 59.6417 141.586 59.8973L140.646 60.3548H134.921L134.896 57.8939H139.187C139.929 57.8939 140.547 57.762 141.042 57.4982C141.537 57.2344 141.908 56.8758 142.155 56.4223C142.41 55.9607 142.538 55.4413 142.538 54.8642C142.538 54.2376 142.415 53.6935 142.167 53.2318C141.928 52.7619 141.557 52.4033 141.054 52.156C140.551 51.9004 139.913 51.7726 139.138 51.7726H135.873V67.3047H132.769V49.2993ZM143.045 67.3047L138.816 59.2171L142.068 59.2048L146.359 67.1439V67.3047H143.045ZM154.323 67.552C153.334 67.552 152.44 67.3913 151.64 67.0697C150.848 66.74 150.172 66.2824 149.612 65.6971C149.059 65.1117 148.635 64.4233 148.338 63.6319C148.041 62.8405 147.893 61.9872 147.893 61.0721V60.5774C147.893 59.5304 148.045 58.5823 148.35 57.7332C148.655 56.884 149.08 56.1585 149.624 55.5567C150.168 54.9466 150.811 54.4808 151.553 54.1593C152.295 53.8378 153.099 53.677 153.965 53.677C154.921 53.677 155.758 53.8378 156.475 54.1593C157.192 54.4808 157.786 54.9343 158.256 55.5196C158.734 56.0967 159.089 56.7851 159.319 57.5848C159.558 58.3845 159.678 59.2666 159.678 60.2312V61.5049H149.34V59.3655H156.735V59.1306C156.718 58.5947 156.611 58.0918 156.413 57.6219C156.224 57.152 155.931 56.7727 155.535 56.4842C155.14 56.1956 154.612 56.0514 153.952 56.0514C153.458 56.0514 153.017 56.1585 152.629 56.3729C152.25 56.579 151.933 56.8799 151.677 57.2756C151.421 57.6713 151.224 58.1495 151.083 58.7101C150.951 59.2625 150.886 59.8849 150.886 60.5774V61.0721C150.886 61.6574 150.964 62.2015 151.12 62.7044C151.285 63.1991 151.524 63.6319 151.838 64.0029C152.151 64.3739 152.53 64.6665 152.975 64.8809C153.421 65.087 153.928 65.19 154.496 65.19C155.214 65.19 155.853 65.0458 156.413 64.7572C156.974 64.4687 157.46 64.0606 157.872 63.533L159.443 65.054C159.154 65.4745 158.779 65.8784 158.318 66.2659C157.856 66.6452 157.291 66.9543 156.624 67.1934C155.964 67.4325 155.197 67.552 154.323 67.552ZM166.183 64.9427L169.46 53.9243H172.551L167.902 67.3047H165.972L166.183 64.9427ZM163.672 53.9243L167.011 64.9922L167.172 67.3047H165.243L160.568 53.9243H163.672ZM180.119 67.552C179.13 67.552 178.236 67.3913 177.436 67.0697C176.645 66.74 175.969 66.2824 175.408 65.6971C174.856 65.1117 174.431 64.4233 174.134 63.6319C173.837 62.8405 173.689 61.9872 173.689 61.0721V60.5774C173.689 59.5304 173.842 58.5823 174.147 57.7332C174.452 56.884 174.876 56.1585 175.42 55.5567C175.964 54.9466 176.607 54.4808 177.349 54.1593C178.091 53.8378 178.895 53.677 179.761 53.677C180.717 53.677 181.554 53.8378 182.271 54.1593C182.988 54.4808 183.582 54.9343 184.052 55.5196C184.53 56.0967 184.885 56.7851 185.115 57.5848C185.355 58.3845 185.474 59.2666 185.474 60.2312V61.5049H175.136V59.3655H182.531V59.1306C182.514 58.5947 182.407 58.0918 182.209 57.6219C182.02 57.152 181.727 56.7727 181.331 56.4842C180.936 56.1956 180.408 56.0514 179.748 56.0514C179.254 56.0514 178.813 56.1585 178.425 56.3729C178.046 56.579 177.729 56.8799 177.473 57.2756C177.218 57.6713 177.02 58.1495 176.88 58.7101C176.748 59.2625 176.682 59.8849 176.682 60.5774V61.0721C176.682 61.6574 176.76 62.2015 176.917 62.7044C177.081 63.1991 177.321 63.6319 177.634 64.0029C177.947 64.3739 178.326 64.6665 178.772 64.8809C179.217 65.087 179.724 65.19 180.293 65.19C181.01 65.19 181.649 65.0458 182.209 64.7572C182.77 64.4687 183.256 64.0606 183.669 63.533L185.239 65.054C184.951 65.4745 184.575 65.8784 184.114 66.2659C183.652 66.6452 183.087 66.9543 182.42 67.1934C181.76 67.4325 180.993 67.552 180.119 67.552ZM190.755 56.781V67.3047H187.774V53.9243H190.581L190.755 56.781ZM190.223 60.1199L189.258 60.1075C189.266 59.1594 189.398 58.2897 189.654 57.4982C189.918 56.7068 190.28 56.0266 190.742 55.4578C191.212 54.8889 191.773 54.452 192.424 54.1469C193.075 53.8337 193.801 53.677 194.6 53.677C195.243 53.677 195.825 53.7677 196.344 53.9491C196.872 54.1222 197.321 54.4066 197.692 54.8024C198.071 55.1981 198.36 55.7133 198.558 56.3481C198.755 56.9747 198.854 57.7455 198.854 58.6606V67.3047H195.862V58.6483C195.862 58.0052 195.767 57.4982 195.577 57.1272C195.396 56.748 195.128 56.4801 194.774 56.3234C194.427 56.1585 193.994 56.0761 193.475 56.0761C192.964 56.0761 192.506 56.1833 192.102 56.3976C191.698 56.612 191.356 56.9046 191.076 57.2756C190.804 57.6466 190.594 58.0753 190.445 58.5617C190.297 59.0481 190.223 59.5675 190.223 60.1199ZM209.947 64.1513V53.9243H212.94V67.3047H210.12L209.947 64.1513ZM210.367 61.3689L211.369 61.3441C211.369 62.2427 211.27 63.0713 211.072 63.8298C210.874 64.58 210.569 65.2354 210.157 65.796C209.745 66.3484 209.217 66.7812 208.574 67.0945C207.931 67.3995 207.16 67.552 206.262 67.552C205.611 67.552 205.013 67.4572 204.469 67.2676C203.925 67.078 203.455 66.7853 203.059 66.3896C202.671 65.9939 202.371 65.4786 202.156 64.8438C201.942 64.209 201.835 63.4505 201.835 62.5684V53.9243H204.815V62.5931C204.815 63.0795 204.873 63.4876 204.988 63.8174C205.104 64.1389 205.26 64.3986 205.458 64.5965C205.656 64.7943 205.887 64.9345 206.151 65.0169C206.414 65.0994 206.695 65.1406 206.991 65.1406C207.841 65.1406 208.508 64.9757 208.995 64.6459C209.489 64.3079 209.84 63.8545 210.046 63.2856C210.26 62.7168 210.367 62.0779 210.367 61.3689ZM221.893 67.552C220.904 67.552 220.009 67.3913 219.209 67.0697C218.418 66.74 217.742 66.2824 217.181 65.6971C216.629 65.1117 216.204 64.4233 215.908 63.6319C215.611 62.8405 215.462 61.9872 215.462 61.0721V60.5774C215.462 59.5304 215.615 58.5823 215.92 57.7332C216.225 56.884 216.65 56.1585 217.194 55.5567C217.738 54.9466 218.381 54.4808 219.123 54.1593C219.865 53.8378 220.669 53.677 221.534 53.677C222.491 53.677 223.327 53.8378 224.045 54.1593C224.762 54.4808 225.355 54.9343 225.825 55.5196C226.304 56.0967 226.658 56.7851 226.889 57.5848C227.128 58.3845 227.247 59.2666 227.247 60.2312V61.5049H216.909V59.3655H224.304V59.1306C224.288 58.5947 224.181 58.0918 223.983 57.6219C223.793 57.152 223.5 56.7727 223.105 56.4842C222.709 56.1956 222.181 56.0514 221.522 56.0514C221.027 56.0514 220.586 56.1585 220.199 56.3729C219.819 56.579 219.502 56.8799 219.246 57.2756C218.991 57.6713 218.793 58.1495 218.653 58.7101C218.521 59.2625 218.455 59.8849 218.455 60.5774V61.0721C218.455 61.6574 218.533 62.2015 218.69 62.7044C218.855 63.1991 219.094 63.6319 219.407 64.0029C219.721 64.3739 220.1 64.6665 220.545 64.8809C220.99 65.087 221.497 65.19 222.066 65.19C222.783 65.19 223.422 65.0458 223.983 64.7572C224.543 64.4687 225.03 64.0606 225.442 63.533L227.013 65.054C226.724 65.4745 226.349 65.8784 225.887 66.2659C225.425 66.6452 224.861 66.9543 224.193 67.1934C223.533 67.4325 222.767 67.552 221.893 67.552Z" fill="#1E1E1E"/>
<rect x="317.462" y="44.3047" width="79.0399" height="29" rx="4.22103" fill="#E1E3E9"/>
<path d="M328.937 53.9022H330.23L332.659 60.383L335.083 53.9022H336.376L333.167 62.3047H332.14L328.937 53.9022ZM328.349 53.9022H329.578L329.791 59.5116V62.3047H328.349V53.9022ZM335.735 53.9022H336.97V62.3047H335.522V59.5116L335.735 53.9022ZM338.286 59.2519V59.1191C338.286 58.669 338.352 58.2516 338.482 57.8668C338.613 57.4783 338.802 57.1416 339.048 56.8569C339.298 56.5684 339.602 56.3452 339.96 56.1875C340.321 56.0259 340.729 55.9451 341.183 55.9451C341.641 55.9451 342.049 56.0259 342.407 56.1875C342.768 56.3452 343.074 56.5684 343.324 56.8569C343.574 57.1416 343.765 57.4783 343.896 57.8668C344.026 58.2516 344.092 58.669 344.092 59.1191V59.2519C344.092 59.702 344.026 60.1194 343.896 60.5042C343.765 60.8889 343.574 61.2255 343.324 61.5141C343.074 61.7988 342.77 62.0219 342.412 62.1835C342.055 62.3412 341.649 62.4201 341.195 62.4201C340.737 62.4201 340.327 62.3412 339.966 62.1835C339.608 62.0219 339.304 61.7988 339.054 61.5141C338.804 61.2255 338.613 60.8889 338.482 60.5042C338.352 60.1194 338.286 59.702 338.286 59.2519ZM339.677 59.1191V59.2519C339.677 59.5327 339.706 59.7982 339.764 60.0482C339.821 60.2983 339.912 60.5176 340.035 60.7061C340.158 60.8947 340.316 61.0428 340.508 61.1505C340.7 61.2582 340.929 61.3121 341.195 61.3121C341.452 61.3121 341.676 61.2582 341.864 61.1505C342.057 61.0428 342.214 60.8947 342.337 60.7061C342.46 60.5176 342.551 60.2983 342.609 60.0482C342.67 59.7982 342.701 59.5327 342.701 59.2519V59.1191C342.701 58.8421 342.67 58.5805 342.609 58.3343C342.551 58.0842 342.459 57.863 342.332 57.6706C342.208 57.4783 342.051 57.3282 341.858 57.2205C341.67 57.1089 341.445 57.0531 341.183 57.0531C340.922 57.0531 340.695 57.1089 340.502 57.2205C340.314 57.3282 340.158 57.4783 340.035 57.6706C339.912 57.863 339.821 58.0842 339.764 58.3343C339.706 58.5805 339.677 58.8421 339.677 59.1191ZM346.637 57.3936V62.3047H345.246V56.0605H346.556L346.637 57.3936ZM346.389 58.9518L345.938 58.946C345.942 58.5036 346.004 58.0977 346.123 57.7283C346.246 57.359 346.415 57.0416 346.631 56.7761C346.85 56.5107 347.112 56.3068 347.416 56.1644C347.72 56.0182 348.058 55.9451 348.431 55.9451C348.732 55.9451 349.003 55.9874 349.245 56.0721C349.491 56.1529 349.701 56.2856 349.874 56.4703C350.051 56.6549 350.186 56.8954 350.278 57.1916C350.371 57.484 350.417 57.8437 350.417 58.2708V62.3047H349.02V58.265C349.02 57.9649 348.976 57.7283 348.887 57.5552C348.803 57.3782 348.678 57.2532 348.512 57.1801C348.351 57.1031 348.149 57.0647 347.906 57.0647C347.668 57.0647 347.454 57.1147 347.266 57.2147C347.077 57.3147 346.918 57.4513 346.787 57.6245C346.66 57.7976 346.562 57.9976 346.492 58.2246C346.423 58.4516 346.389 58.694 346.389 58.9518ZM354.699 56.0605V57.0762H351.178V56.0605H354.699ZM352.194 54.5312H353.585V60.5792C353.585 60.7715 353.612 60.9197 353.666 61.0235C353.723 61.1236 353.802 61.1909 353.902 61.2255C354.002 61.2601 354.12 61.2775 354.254 61.2775C354.351 61.2775 354.443 61.2717 354.531 61.2601C354.62 61.2486 354.691 61.2371 354.745 61.2255L354.751 62.2874C354.635 62.322 354.501 62.3528 354.347 62.3797C354.197 62.4066 354.024 62.4201 353.827 62.4201C353.508 62.4201 353.225 62.3643 352.979 62.2527C352.733 62.1373 352.54 61.9507 352.402 61.693C352.263 61.4352 352.194 61.0928 352.194 60.6657V54.5312ZM357.146 53.4405V62.3047H355.761V53.4405H357.146ZM356.903 58.9518L356.453 58.946C356.457 58.5151 356.517 58.1169 356.632 57.7514C356.751 57.3859 356.917 57.0685 357.128 56.7992C357.344 56.5261 357.602 56.3164 357.902 56.1702C358.202 56.0201 358.534 55.9451 358.9 55.9451C359.208 55.9451 359.485 55.9874 359.731 56.0721C359.981 56.1567 360.197 56.2933 360.377 56.4818C360.558 56.6665 360.695 56.9089 360.787 57.2089C360.883 57.5052 360.931 57.8668 360.931 58.2939V62.3047H359.535V58.2823C359.535 57.9823 359.491 57.7437 359.402 57.5667C359.317 57.3898 359.192 57.2628 359.027 57.1859C358.861 57.1051 358.66 57.0647 358.421 57.0647C358.171 57.0647 357.95 57.1147 357.757 57.2147C357.569 57.3147 357.411 57.4513 357.284 57.6245C357.157 57.7976 357.061 57.9976 356.996 58.2246C356.934 58.4516 356.903 58.694 356.903 58.9518ZM363.828 53.4405V62.3047H362.432V53.4405H363.828ZM367.164 61.6237L368.861 56.0605H370.35L367.845 63.2569C367.787 63.4108 367.712 63.5781 367.62 63.759C367.528 63.9398 367.406 64.111 367.256 64.2726C367.11 64.438 366.927 64.5707 366.708 64.6708C366.489 64.7747 366.223 64.8266 365.912 64.8266C365.789 64.8266 365.669 64.815 365.554 64.792C365.442 64.7727 365.336 64.7516 365.236 64.7285L365.231 63.6666C365.269 63.6705 365.315 63.6743 365.369 63.6782C365.427 63.682 365.473 63.6839 365.508 63.6839C365.739 63.6839 365.931 63.6551 366.085 63.5974C366.239 63.5435 366.364 63.455 366.46 63.3319C366.56 63.2088 366.645 63.0434 366.714 62.8356L367.164 61.6237ZM366.206 56.0605L367.689 60.735L367.937 62.2008L366.974 62.449L364.706 56.0605H366.206Z" fill="#1E1E1E"/>
<path d="M376.372 57.1152L379.749 60.4921L383.126 57.1152" stroke="#1E1E1E" stroke-width="1.68841" stroke-linecap="round" stroke-linejoin="round"/>
<path d="M57.2808 98.6817V101.196H56.0441V98.6817H57.2808ZM57.1324 112.144V114.346H55.904V112.144H57.1324ZM58.7812 109.539C58.7812 109.21 58.707 108.913 58.5586 108.649C58.4102 108.385 58.1656 108.143 57.8249 107.923C57.4841 107.704 57.0279 107.5 56.4563 107.313C55.7638 107.099 55.1648 106.838 54.6591 106.53C54.159 106.222 53.7715 105.84 53.4967 105.384C53.2274 104.928 53.0927 104.376 53.0927 103.727C53.0927 103.051 53.2384 102.469 53.5297 101.979C53.8209 101.49 54.2332 101.114 54.7663 100.85C55.2994 100.586 55.926 100.454 56.646 100.454C57.2066 100.454 57.7067 100.539 58.1464 100.71C58.5861 100.875 58.9571 101.122 59.2594 101.452C59.5672 101.781 59.8007 102.185 59.9601 102.664C60.125 103.142 60.2075 103.694 60.2075 104.321H58.6905C58.6905 103.952 58.6466 103.614 58.5586 103.307C58.4707 102.999 58.3388 102.732 58.1629 102.507C57.987 102.276 57.7727 102.1 57.5198 101.979C57.267 101.853 56.9757 101.79 56.646 101.79C56.1843 101.79 55.8023 101.869 55.5 102.029C55.2032 102.188 54.9834 102.414 54.8405 102.705C54.6976 102.991 54.6261 103.323 54.6261 103.702C54.6261 104.054 54.6976 104.362 54.8405 104.626C54.9834 104.89 55.2252 105.129 55.566 105.343C55.9122 105.552 56.3876 105.758 56.9922 105.961C57.7012 106.187 58.303 106.453 58.7977 106.761C59.2924 107.063 59.6688 107.437 59.9272 107.882C60.1855 108.322 60.3146 108.869 60.3146 109.523C60.3146 110.232 60.1552 110.831 59.8365 111.32C59.5177 111.804 59.0698 112.172 58.4927 112.425C57.9156 112.678 57.2395 112.804 56.4646 112.804C55.9974 112.804 55.5357 112.741 55.0796 112.614C54.6234 112.488 54.2112 112.282 53.8429 111.996C53.4747 111.705 53.1807 111.323 52.9608 110.85C52.741 110.372 52.631 109.787 52.631 109.094H54.1645C54.1645 109.561 54.2304 109.949 54.3623 110.257C54.4997 110.559 54.6811 110.801 54.9064 110.982C55.1318 111.158 55.3791 111.284 55.6484 111.361C55.9232 111.433 56.1953 111.468 56.4646 111.468C56.9592 111.468 57.3769 111.391 57.7177 111.238C58.064 111.078 58.3278 110.853 58.5092 110.562C58.6905 110.27 58.7812 109.93 58.7812 109.539ZM64.1482 106.918L62.928 106.604L63.5299 100.627H69.6883V102.037H64.8242L64.4615 105.302C64.6813 105.175 64.9589 105.057 65.2941 104.947C65.6349 104.837 66.0251 104.782 66.4648 104.782C67.0199 104.782 67.5173 104.879 67.957 105.071C68.3967 105.258 68.7704 105.527 69.0782 105.879C69.3915 106.231 69.6306 106.654 69.7955 107.148C69.9604 107.643 70.0428 108.195 70.0428 108.806C70.0428 109.383 69.9631 109.913 69.8037 110.397C69.6498 110.88 69.4162 111.304 69.103 111.666C68.7897 112.024 68.394 112.301 67.9158 112.499C67.4431 112.697 66.8853 112.796 66.2422 112.796C65.7586 112.796 65.2996 112.73 64.8654 112.598C64.4367 112.46 64.052 112.254 63.7112 111.98C63.376 111.699 63.1012 111.353 62.8868 110.941C62.678 110.523 62.5461 110.034 62.4911 109.473H63.9421C64.008 109.924 64.1399 110.303 64.3378 110.611C64.5357 110.919 64.794 111.152 65.1128 111.312C65.437 111.466 65.8135 111.543 66.2422 111.543C66.605 111.543 66.9265 111.479 67.2068 111.353C67.4871 111.227 67.7234 111.045 67.9158 110.809C68.1082 110.573 68.2538 110.287 68.3527 109.951C68.4572 109.616 68.5094 109.24 68.5094 108.822C68.5094 108.443 68.4572 108.091 68.3527 107.767C68.2483 107.443 68.0917 107.159 67.8828 106.918C67.6795 106.676 67.4294 106.489 67.1326 106.357C66.8358 106.22 66.495 106.151 66.1103 106.151C65.5992 106.151 65.2117 106.22 64.9479 106.357C64.6896 106.494 64.423 106.681 64.1482 106.918ZM79.2516 105.673V107.503C79.2516 108.487 79.1636 109.317 78.9878 109.993C78.8119 110.669 78.5591 111.213 78.2293 111.625C77.8995 112.037 77.501 112.337 77.0339 112.524C76.5722 112.705 76.0501 112.796 75.4675 112.796C75.0058 112.796 74.5799 112.738 74.1896 112.623C73.7994 112.507 73.4476 112.323 73.1344 112.07C72.8266 111.812 72.5628 111.477 72.3429 111.064C72.1231 110.652 71.9554 110.152 71.84 109.564C71.7246 108.976 71.6669 108.289 71.6669 107.503V105.673C71.6669 104.689 71.7548 103.865 71.9307 103.199C72.1121 102.534 72.3677 102.001 72.6974 101.6C73.0272 101.193 73.4229 100.902 73.8846 100.726C74.3518 100.55 74.8739 100.462 75.451 100.462C75.9182 100.462 76.3469 100.52 76.7371 100.636C77.1328 100.745 77.4846 100.924 77.7923 101.171C78.1001 101.413 78.3612 101.738 78.5755 102.144C78.7954 102.545 78.963 103.037 79.0784 103.62C79.1939 104.203 79.2516 104.887 79.2516 105.673ZM77.7181 107.75V105.417C77.7181 104.879 77.6852 104.406 77.6192 103.999C77.5588 103.587 77.4681 103.235 77.3472 102.944C77.2262 102.653 77.0723 102.416 76.8855 102.235C76.7041 102.054 76.4925 101.922 76.2507 101.839C76.0143 101.751 75.7478 101.707 75.451 101.707C75.0882 101.707 74.7667 101.776 74.4864 101.913C74.2061 102.045 73.9698 102.257 73.7774 102.548C73.5905 102.839 73.4476 103.221 73.3487 103.694C73.2498 104.167 73.2003 104.741 73.2003 105.417V107.75C73.2003 108.289 73.2306 108.764 73.291 109.177C73.357 109.589 73.4531 109.946 73.5796 110.248C73.706 110.545 73.8599 110.79 74.0412 110.982C74.2226 111.174 74.4315 111.317 74.6678 111.411C74.9096 111.499 75.1762 111.543 75.4675 111.543C75.8412 111.543 76.1682 111.471 76.4485 111.328C76.7288 111.185 76.9624 110.963 77.1493 110.66C77.3417 110.353 77.4846 109.96 77.578 109.482C77.6714 108.998 77.7181 108.421 77.7181 107.75ZM88.7489 105.673V107.503C88.7489 108.487 88.6609 109.317 88.4851 109.993C88.3092 110.669 88.0564 111.213 87.7266 111.625C87.3968 112.037 86.9984 112.337 86.5312 112.524C86.0695 112.705 85.5474 112.796 84.9648 112.796C84.5031 112.796 84.0772 112.738 83.6869 112.623C83.2967 112.507 82.945 112.323 82.6317 112.07C82.3239 111.812 82.0601 111.477 81.8402 111.064C81.6204 110.652 81.4528 110.152 81.3373 109.564C81.2219 108.976 81.1642 108.289 81.1642 107.503V105.673C81.1642 104.689 81.2522 103.865 81.428 103.199C81.6094 102.534 81.865 102.001 82.1947 101.6C82.5245 101.193 82.9202 100.902 83.3819 100.726C83.8491 100.55 84.3712 100.462 84.9483 100.462C85.4155 100.462 85.8442 100.52 86.2344 100.636C86.6301 100.745 86.9819 100.924 87.2897 101.171C87.5974 101.413 87.8585 101.738 88.0729 102.144C88.2927 102.545 88.4603 103.037 88.5758 103.62C88.6912 104.203 88.7489 104.887 88.7489 105.673ZM87.2155 107.75V105.417C87.2155 104.879 87.1825 104.406 87.1165 103.999C87.0561 103.587 86.9654 103.235 86.8445 102.944C86.7236 102.653 86.5697 102.416 86.3828 102.235C86.2014 102.054 85.9898 101.922 85.748 101.839C85.5117 101.751 85.2451 101.707 84.9483 101.707C84.5856 101.707 84.264 101.776 83.9837 101.913C83.7034 102.045 83.4671 102.257 83.2747 102.548C83.0879 102.839 82.945 103.221 82.846 103.694C82.7471 104.167 82.6976 104.741 82.6976 105.417V107.75C82.6976 108.289 82.7279 108.764 82.7883 109.177C82.8543 109.589 82.9505 109.946 83.0769 110.248C83.2033 110.545 83.3572 110.79 83.5386 110.982C83.7199 111.174 83.9288 111.317 84.1651 111.411C84.4069 111.499 84.6735 111.543 84.9648 111.543C85.3385 111.543 85.6656 111.471 85.9459 111.328C86.2262 111.185 86.4597 110.963 86.6466 110.66C86.839 110.353 86.9819 109.96 87.0753 109.482C87.1687 108.998 87.2155 108.421 87.2155 107.75ZM92.4093 99.9678V112.631H90.8759V99.9678H92.4093ZM97.8587 103.711L93.9675 107.874L91.791 110.133L91.6673 108.509L93.2255 106.646L95.9955 103.711H97.8587ZM96.4655 112.631L93.2832 108.377L94.0746 107.017L98.2627 112.631H96.4655Z" fill="#7884AE"/>
<path d="M57.2808 134.254V136.768H56.0441V134.254H57.2808ZM57.1324 147.717V149.918H55.904V147.717H57.1324ZM58.7812 145.112C58.7812 144.782 58.707 144.485 58.5586 144.221C58.4102 143.957 58.1656 143.716 57.8249 143.496C57.4841 143.276 57.0279 143.072 56.4563 142.886C55.7638 142.671 55.1648 142.41 54.6591 142.102C54.159 141.795 53.7715 141.413 53.4967 140.956C53.2274 140.5 53.0927 139.948 53.0927 139.299C53.0927 138.623 53.2384 138.041 53.5297 137.552C53.8209 137.062 54.2332 136.686 54.7663 136.422C55.2994 136.158 55.926 136.026 56.646 136.026C57.2066 136.026 57.7067 136.112 58.1464 136.282C58.5861 136.447 58.9571 136.694 59.2594 137.024C59.5672 137.354 59.8007 137.758 59.9601 138.236C60.125 138.714 60.2075 139.266 60.2075 139.893H58.6905C58.6905 139.525 58.6466 139.187 58.5586 138.879C58.4707 138.571 58.3388 138.305 58.1629 138.079C57.987 137.848 57.7727 137.673 57.5198 137.552C57.267 137.425 56.9757 137.362 56.646 137.362C56.1843 137.362 55.8023 137.442 55.5 137.601C55.2032 137.76 54.9834 137.986 54.8405 138.277C54.6976 138.563 54.6261 138.895 54.6261 139.275C54.6261 139.626 54.6976 139.934 54.8405 140.198C54.9834 140.462 55.2252 140.701 55.566 140.915C55.9122 141.124 56.3876 141.33 56.9922 141.534C57.7012 141.759 58.303 142.025 58.7977 142.333C59.2924 142.636 59.6688 143.009 59.9272 143.454C60.1855 143.894 60.3146 144.441 60.3146 145.095C60.3146 145.804 60.1552 146.403 59.8365 146.892C59.5177 147.376 59.0698 147.744 58.4927 147.997C57.9156 148.25 57.2395 148.376 56.4646 148.376C55.9974 148.376 55.5357 148.313 55.0796 148.187C54.6234 148.06 54.2112 147.854 53.8429 147.568C53.4747 147.277 53.1807 146.895 52.9608 146.422C52.741 145.944 52.631 145.359 52.631 144.666H54.1645C54.1645 145.134 54.2304 145.521 54.3623 145.829C54.4997 146.131 54.6811 146.373 54.9064 146.554C55.1318 146.73 55.3791 146.857 55.6484 146.934C55.9232 147.005 56.1953 147.041 56.4646 147.041C56.9592 147.041 57.3769 146.964 57.7177 146.81C58.064 146.65 58.3278 146.425 58.5092 146.134C58.6905 145.843 58.7812 145.502 58.7812 145.112ZM70.3313 144.163V145.417H61.6584V144.518L67.0337 136.2H68.2785L66.943 138.607L63.3897 144.163H70.3313ZM68.6578 136.2V148.203H67.1326V136.2H68.6578ZM73.6455 142.49L72.4254 142.177L73.0272 136.2H79.1856V137.609H74.3215L73.9588 140.874C74.1786 140.748 74.4562 140.629 74.7915 140.52C75.1322 140.41 75.5224 140.355 75.9621 140.355C76.5172 140.355 77.0146 140.451 77.4543 140.643C77.894 140.83 78.2678 141.099 78.5755 141.451C78.8888 141.803 79.1279 142.226 79.2928 142.721C79.4577 143.215 79.5401 143.768 79.5401 144.378C79.5401 144.955 79.4604 145.485 79.301 145.969C79.1471 146.453 78.9136 146.876 78.6003 147.239C78.287 147.596 77.8913 147.873 77.4131 148.071C76.9404 148.269 76.3826 148.368 75.7395 148.368C75.2559 148.368 74.7969 148.302 74.3628 148.17C73.9341 148.033 73.5493 147.827 73.2086 147.552C72.8733 147.272 72.5985 146.925 72.3841 146.513C72.1753 146.095 72.0434 145.606 71.9884 145.046H73.4394C73.5054 145.496 73.6373 145.876 73.8351 146.183C74.033 146.491 74.2913 146.725 74.6101 146.884C74.9344 147.038 75.3108 147.115 75.7395 147.115C76.1023 147.115 76.4238 147.052 76.7041 146.925C76.9844 146.799 77.2207 146.617 77.4131 146.381C77.6055 146.145 77.7511 145.859 77.8501 145.524C77.9545 145.188 78.0067 144.812 78.0067 144.394C78.0067 144.015 77.9545 143.663 77.8501 143.339C77.7456 143.015 77.589 142.732 77.3801 142.49C77.1768 142.248 76.9267 142.061 76.6299 141.929C76.3331 141.792 75.9924 141.723 75.6076 141.723C75.0965 141.723 74.709 141.792 74.4452 141.929C74.1869 142.067 73.9203 142.254 73.6455 142.49ZM88.7489 141.245V143.075C88.7489 144.059 88.6609 144.889 88.4851 145.565C88.3092 146.241 88.0564 146.785 87.7266 147.197C87.3968 147.61 86.9984 147.909 86.5312 148.096C86.0695 148.277 85.5474 148.368 84.9648 148.368C84.5031 148.368 84.0772 148.31 83.6869 148.195C83.2967 148.079 82.945 147.895 82.6317 147.643C82.3239 147.384 82.0601 147.049 81.8402 146.637C81.6204 146.225 81.4528 145.724 81.3373 145.136C81.2219 144.548 81.1642 143.861 81.1642 143.075V141.245C81.1642 140.261 81.2522 139.437 81.428 138.772C81.6094 138.107 81.865 137.574 82.1947 137.172C82.5245 136.766 82.9202 136.474 83.3819 136.298C83.8491 136.123 84.3712 136.035 84.9483 136.035C85.4155 136.035 85.8442 136.092 86.2344 136.208C86.6301 136.318 86.9819 136.496 87.2897 136.744C87.5974 136.986 87.8585 137.31 88.0729 137.716C88.2927 138.118 88.4603 138.61 88.5758 139.192C88.6912 139.775 88.7489 140.459 88.7489 141.245ZM87.2155 143.323V140.989C87.2155 140.451 87.1825 139.978 87.1165 139.571C87.0561 139.159 86.9654 138.807 86.8445 138.516C86.7236 138.225 86.5697 137.989 86.3828 137.807C86.2014 137.626 85.9898 137.494 85.748 137.411C85.5117 137.324 85.2451 137.28 84.9483 137.28C84.5856 137.28 84.264 137.348 83.9837 137.486C83.7034 137.618 83.4671 137.829 83.2747 138.12C83.0879 138.412 82.945 138.794 82.846 139.266C82.7471 139.739 82.6976 140.313 82.6976 140.989V143.323C82.6976 143.861 82.7279 144.337 82.7883 144.749C82.8543 145.161 82.9505 145.518 83.0769 145.821C83.2033 146.117 83.3572 146.362 83.5386 146.554C83.7199 146.747 83.9288 146.89 84.1651 146.983C84.4069 147.071 84.6735 147.115 84.9648 147.115C85.3385 147.115 85.6656 147.043 85.9459 146.901C86.2262 146.758 86.4597 146.535 86.6466 146.233C86.839 145.925 86.9819 145.532 87.0753 145.054C87.1687 144.57 87.2155 143.993 87.2155 143.323ZM92.4093 135.54V148.203H90.8759V135.54H92.4093ZM97.8587 139.283L93.9675 143.446L91.791 145.705L91.6673 144.081L93.2255 142.218L95.9955 139.283H97.8587ZM96.4655 148.203L93.2832 143.949L94.0746 142.589L98.2627 148.203H96.4655Z" fill="#7884AE"/>
<path d="M57.2808 169.826V172.341H56.0441V169.826H57.2808ZM57.1324 183.289V185.49H55.904V183.289H57.1324ZM58.7812 180.684C58.7812 180.354 58.707 180.057 58.5586 179.793C58.4102 179.53 58.1656 179.288 57.8249 179.068C57.4841 178.848 57.0279 178.645 56.4563 178.458C55.7638 178.244 55.1648 177.982 54.6591 177.675C54.159 177.367 53.7715 176.985 53.4967 176.529C53.2274 176.073 53.0927 175.52 53.0927 174.872C53.0927 174.196 53.2384 173.613 53.5297 173.124C53.8209 172.635 54.2332 172.258 54.7663 171.994C55.2994 171.731 55.926 171.599 56.646 171.599C57.2066 171.599 57.7067 171.684 58.1464 171.854C58.5861 172.019 58.9571 172.266 59.2594 172.596C59.5672 172.926 59.8007 173.33 59.9601 173.808C60.125 174.286 60.2075 174.839 60.2075 175.465H58.6905C58.6905 175.097 58.6466 174.759 58.5586 174.451C58.4707 174.143 58.3388 173.877 58.1629 173.652C57.987 173.421 57.7727 173.245 57.5198 173.124C57.267 172.997 56.9757 172.934 56.646 172.934C56.1843 172.934 55.8023 173.014 55.5 173.173C55.2032 173.333 54.9834 173.558 54.8405 173.849C54.6976 174.135 54.6261 174.468 54.6261 174.847C54.6261 175.199 54.6976 175.506 54.8405 175.77C54.9834 176.034 55.2252 176.273 55.566 176.488C55.9122 176.696 56.3876 176.902 56.9922 177.106C57.7012 177.331 58.303 177.598 58.7977 177.906C59.2924 178.208 59.6688 178.582 59.9272 179.027C60.1855 179.466 60.3146 180.013 60.3146 180.667C60.3146 181.376 60.1552 181.975 59.8365 182.465C59.5177 182.948 59.0698 183.316 58.4927 183.569C57.9156 183.822 57.2395 183.949 56.4646 183.949C55.9974 183.949 55.5357 183.885 55.0796 183.759C54.6234 183.632 54.2112 183.426 53.8429 183.141C53.4747 182.849 53.1807 182.467 52.9608 181.995C52.741 181.516 52.631 180.931 52.631 180.239H54.1645C54.1645 180.706 54.2304 181.093 54.3623 181.401C54.4997 181.703 54.6811 181.945 54.9064 182.127C55.1318 182.302 55.3791 182.429 55.6484 182.506C55.9232 182.577 56.1953 182.613 56.4646 182.613C56.9592 182.613 57.3769 182.536 57.7177 182.382C58.064 182.223 58.3278 181.997 58.5092 181.706C58.6905 181.415 58.7812 181.074 58.7812 180.684ZM64.445 177.023H65.5332C66.0663 177.023 66.506 176.935 66.8523 176.76C67.204 176.578 67.4651 176.334 67.6355 176.026C67.8114 175.713 67.8993 175.361 67.8993 174.971C67.8993 174.509 67.8224 174.121 67.6685 173.808C67.5146 173.495 67.2837 173.259 66.9759 173.099C66.6682 172.94 66.2779 172.86 65.8053 172.86C65.3766 172.86 64.9973 172.945 64.6676 173.116C64.3433 173.281 64.0877 173.517 63.9009 173.825C63.7195 174.132 63.6288 174.495 63.6288 174.913H62.1036C62.1036 174.303 62.2575 173.748 62.5653 173.248C62.8731 172.747 63.3045 172.349 63.8596 172.052C64.4202 171.755 65.0688 171.607 65.8053 171.607C66.5308 171.607 67.1656 171.736 67.7097 171.994C68.2538 172.247 68.677 172.626 68.9793 173.132C69.2816 173.632 69.4327 174.256 69.4327 175.004C69.4327 175.306 69.3613 175.63 69.2184 175.976C69.081 176.317 68.8639 176.636 68.5671 176.933C68.2758 177.229 67.8966 177.474 67.4294 177.666C66.9622 177.853 66.4016 177.947 65.7476 177.947H64.445V177.023ZM64.445 178.277V177.361H65.7476C66.5115 177.361 67.1436 177.452 67.6437 177.633C68.1439 177.815 68.5369 178.057 68.8227 178.359C69.1139 178.661 69.3173 178.994 69.4327 179.356C69.5536 179.714 69.6141 180.071 69.6141 180.428C69.6141 180.989 69.5179 181.486 69.3255 181.92C69.1387 182.355 68.8721 182.723 68.5259 183.025C68.1851 183.327 67.7839 183.556 67.3222 183.709C66.8605 183.863 66.3576 183.94 65.8135 183.94C65.2914 183.94 64.7995 183.866 64.3378 183.718C63.8816 183.569 63.4777 183.355 63.1259 183.075C62.7742 182.789 62.4993 182.44 62.3015 182.028C62.1036 181.61 62.0047 181.134 62.0047 180.601H63.5299C63.5299 181.019 63.6206 181.385 63.8019 181.698C63.9888 182.011 64.2526 182.256 64.5934 182.432C64.9396 182.602 65.3463 182.687 65.8135 182.687C66.2807 182.687 66.6819 182.607 67.0172 182.448C67.3579 182.283 67.619 182.036 67.8004 181.706C67.9872 181.376 68.0807 180.961 68.0807 180.461C68.0807 179.961 67.9762 179.552 67.7674 179.233C67.5585 178.909 67.2617 178.669 66.877 178.516C66.4978 178.356 66.0499 178.277 65.5332 178.277H64.445ZM73.6455 178.062L72.4254 177.749L73.0272 171.772H79.1856V173.182H74.3215L73.9588 176.446C74.1786 176.32 74.4562 176.202 74.7915 176.092C75.1322 175.982 75.5224 175.927 75.9621 175.927C76.5172 175.927 77.0146 176.023 77.4543 176.215C77.894 176.402 78.2678 176.672 78.5755 177.023C78.8888 177.375 79.1279 177.798 79.2928 178.293C79.4577 178.788 79.5401 179.34 79.5401 179.95C79.5401 180.527 79.4604 181.058 79.301 181.541C79.1471 182.025 78.9136 182.448 78.6003 182.811C78.287 183.168 77.8913 183.446 77.4131 183.643C76.9404 183.841 76.3826 183.94 75.7395 183.94C75.2559 183.94 74.7969 183.874 74.3628 183.742C73.9341 183.605 73.5493 183.399 73.2086 183.124C72.8733 182.844 72.5985 182.498 72.3841 182.085C72.1753 181.668 72.0434 181.178 71.9884 180.618H73.4394C73.5054 181.069 73.6373 181.448 73.8351 181.756C74.033 182.063 74.2913 182.297 74.6101 182.456C74.9344 182.61 75.3108 182.687 75.7395 182.687C76.1023 182.687 76.4238 182.624 76.7041 182.498C76.9844 182.371 77.2207 182.19 77.4131 181.953C77.6055 181.717 77.7511 181.431 77.8501 181.096C77.9545 180.761 78.0067 180.384 78.0067 179.967C78.0067 179.587 77.9545 179.236 77.8501 178.911C77.7456 178.587 77.589 178.304 77.3801 178.062C77.1768 177.82 76.9267 177.633 76.6299 177.502C76.3331 177.364 75.9924 177.295 75.6076 177.295C75.0965 177.295 74.709 177.364 74.4452 177.502C74.1869 177.639 73.9203 177.826 73.6455 178.062ZM88.7489 176.817V178.647C88.7489 179.631 88.6609 180.461 88.4851 181.137C88.3092 181.813 88.0564 182.357 87.7266 182.77C87.3968 183.182 86.9984 183.481 86.5312 183.668C86.0695 183.85 85.5474 183.94 84.9648 183.94C84.5031 183.94 84.0772 183.883 83.6869 183.767C83.2967 183.652 82.945 183.468 82.6317 183.215C82.3239 182.956 82.0601 182.621 81.8402 182.209C81.6204 181.797 81.4528 181.297 81.3373 180.709C81.2219 180.12 81.1642 179.433 81.1642 178.647V176.817C81.1642 175.833 81.2522 175.009 81.428 174.344C81.6094 173.679 81.865 173.146 82.1947 172.745C82.5245 172.338 82.9202 172.047 83.3819 171.871C83.8491 171.695 84.3712 171.607 84.9483 171.607C85.4155 171.607 85.8442 171.665 86.2344 171.78C86.6301 171.89 86.9819 172.069 87.2897 172.316C87.5974 172.558 87.8585 172.882 88.0729 173.289C88.2927 173.69 88.4603 174.182 88.5758 174.764C88.6912 175.347 88.7489 176.031 88.7489 176.817ZM87.2155 178.895V176.562C87.2155 176.023 87.1825 175.55 87.1165 175.144C87.0561 174.732 86.9654 174.38 86.8445 174.088C86.7236 173.797 86.5697 173.561 86.3828 173.379C86.2014 173.198 85.9898 173.066 85.748 172.984C85.5117 172.896 85.2451 172.852 84.9483 172.852C84.5856 172.852 84.264 172.921 83.9837 173.058C83.7034 173.19 83.4671 173.401 83.2747 173.693C83.0879 173.984 82.945 174.366 82.846 174.839C82.7471 175.311 82.6976 175.886 82.6976 176.562V178.895C82.6976 179.433 82.7279 179.909 82.7883 180.321C82.8543 180.733 82.9505 181.091 83.0769 181.393C83.2033 181.69 83.3572 181.934 83.5386 182.127C83.7199 182.319 83.9288 182.462 84.1651 182.555C84.4069 182.643 84.6735 182.687 84.9648 182.687C85.3385 182.687 85.6656 182.616 85.9459 182.473C86.2262 182.33 86.4597 182.107 86.6466 181.805C86.839 181.497 86.9819 181.104 87.0753 180.626C87.1687 180.142 87.2155 179.565 87.2155 178.895ZM92.4093 171.112V183.775H90.8759V171.112H92.4093ZM97.8587 174.855L93.9675 179.018L91.791 181.277L91.6673 179.653L93.2255 177.79L95.9955 174.855H97.8587ZM96.4655 183.775L93.2832 179.521L94.0746 178.161L98.2627 183.775H96.4655Z" fill="#7884AE"/>
<path d="M57.2808 205.398V207.913H56.0441V205.398H57.2808ZM57.1324 218.861V221.062H55.904V218.861H57.1324ZM58.7812 216.256C58.7812 215.926 58.707 215.63 58.5586 215.366C58.4102 215.102 58.1656 214.86 57.8249 214.64C57.4841 214.42 57.0279 214.217 56.4563 214.03C55.7638 213.816 55.1648 213.555 54.6591 213.247C54.159 212.939 53.7715 212.557 53.4967 212.101C53.2274 211.645 53.0927 211.092 53.0927 210.444C53.0927 209.768 53.2384 209.185 53.5297 208.696C53.8209 208.207 54.2332 207.831 54.7663 207.567C55.2994 207.303 55.926 207.171 56.646 207.171C57.2066 207.171 57.7067 207.256 58.1464 207.427C58.5861 207.591 58.9571 207.839 59.2594 208.169C59.5672 208.498 59.8007 208.902 59.9601 209.38C60.125 209.859 60.2075 210.411 60.2075 211.038H58.6905C58.6905 210.669 58.6466 210.331 58.5586 210.023C58.4707 209.716 58.3388 209.449 58.1629 209.224C57.987 208.993 57.7727 208.817 57.5198 208.696C57.267 208.57 56.9757 208.507 56.646 208.507C56.1843 208.507 55.8023 208.586 55.5 208.746C55.2032 208.905 54.9834 209.13 54.8405 209.422C54.6976 209.707 54.6261 210.04 54.6261 210.419C54.6261 210.771 54.6976 211.079 54.8405 211.343C54.9834 211.606 55.2252 211.845 55.566 212.06C55.9122 212.269 56.3876 212.475 56.9922 212.678C57.7012 212.903 58.303 213.17 58.7977 213.478C59.2924 213.78 59.6688 214.154 59.9272 214.599C60.1855 215.039 60.3146 215.586 60.3146 216.24C60.3146 216.949 60.1552 217.548 59.8365 218.037C59.5177 218.52 59.0698 218.889 58.4927 219.142C57.9156 219.394 57.2395 219.521 56.4646 219.521C55.9974 219.521 55.5357 219.458 55.0796 219.331C54.6234 219.205 54.2112 218.999 53.8429 218.713C53.4747 218.422 53.1807 218.04 52.9608 217.567C52.741 217.089 52.631 216.503 52.631 215.811H54.1645C54.1645 216.278 54.2304 216.666 54.3623 216.973C54.4997 217.276 54.6811 217.517 54.9064 217.699C55.1318 217.875 55.3791 218.001 55.6484 218.078C55.9232 218.149 56.1953 218.185 56.4646 218.185C56.9592 218.185 57.3769 218.108 57.7177 217.954C58.064 217.795 58.3278 217.57 58.5092 217.278C58.6905 216.987 58.7812 216.646 58.7812 216.256ZM64.445 212.596H65.5332C66.0663 212.596 66.506 212.508 66.8523 212.332C67.204 212.15 67.4651 211.906 67.6355 211.598C67.8114 211.285 67.8993 210.933 67.8993 210.543C67.8993 210.081 67.8224 209.694 67.6685 209.38C67.5146 209.067 67.2837 208.831 66.9759 208.671C66.6682 208.512 66.2779 208.432 65.8053 208.432C65.3766 208.432 64.9973 208.518 64.6676 208.688C64.3433 208.853 64.0877 209.089 63.9009 209.397C63.7195 209.705 63.6288 210.067 63.6288 210.485H62.1036C62.1036 209.875 62.2575 209.32 62.5653 208.82C62.8731 208.32 63.3045 207.921 63.8596 207.624C64.4202 207.328 65.0688 207.179 65.8053 207.179C66.5308 207.179 67.1656 207.308 67.7097 207.567C68.2538 207.82 68.677 208.199 68.9793 208.704C69.2816 209.205 69.4327 209.828 69.4327 210.576C69.4327 210.878 69.3613 211.202 69.2184 211.549C69.081 211.889 68.8639 212.208 68.5671 212.505C68.2758 212.802 67.8966 213.046 67.4294 213.239C66.9622 213.426 66.4016 213.519 65.7476 213.519H64.445V212.596ZM64.445 213.849V212.934H65.7476C66.5115 212.934 67.1436 213.024 67.6437 213.206C68.1439 213.387 68.5369 213.629 68.8227 213.931C69.1139 214.234 69.3173 214.566 69.4327 214.929C69.5536 215.286 69.6141 215.643 69.6141 216.001C69.6141 216.561 69.5179 217.059 69.3255 217.493C69.1387 217.927 68.8721 218.295 68.5259 218.597C68.1851 218.9 67.7839 219.128 67.3222 219.282C66.8605 219.436 66.3576 219.513 65.8135 219.513C65.2914 219.513 64.7995 219.438 64.3378 219.29C63.8816 219.142 63.4777 218.927 63.1259 218.647C62.7742 218.361 62.4993 218.012 62.3015 217.6C62.1036 217.182 62.0047 216.707 62.0047 216.174H63.5299C63.5299 216.591 63.6206 216.957 63.8019 217.27C63.9888 217.583 64.2526 217.828 64.5934 218.004C64.9396 218.174 65.3463 218.259 65.8135 218.259C66.2807 218.259 66.6819 218.18 67.0172 218.02C67.3579 217.855 67.619 217.608 67.8004 217.278C67.9872 216.949 68.0807 216.534 68.0807 216.033C68.0807 215.533 67.9762 215.124 67.7674 214.805C67.5585 214.481 67.2617 214.242 66.877 214.088C66.4978 213.928 66.0499 213.849 65.5332 213.849H64.445ZM79.2516 212.39V214.22C79.2516 215.204 79.1636 216.033 78.9878 216.71C78.8119 217.386 78.5591 217.93 78.2293 218.342C77.8995 218.754 77.501 219.054 77.0339 219.24C76.5722 219.422 76.0501 219.513 75.4675 219.513C75.0058 219.513 74.5799 219.455 74.1896 219.339C73.7994 219.224 73.4476 219.04 73.1344 218.787C72.8266 218.529 72.5628 218.193 72.3429 217.781C72.1231 217.369 71.9554 216.869 71.84 216.281C71.7246 215.693 71.6669 215.006 71.6669 214.22V212.39C71.6669 211.406 71.7548 210.581 71.9307 209.916C72.1121 209.251 72.3677 208.718 72.6974 208.317C73.0272 207.91 73.4229 207.619 73.8846 207.443C74.3518 207.267 74.8739 207.179 75.451 207.179C75.9182 207.179 76.3469 207.237 76.7371 207.352C77.1328 207.462 77.4846 207.641 77.7923 207.888C78.1001 208.13 78.3612 208.454 78.5755 208.861C78.7954 209.262 78.963 209.754 79.0784 210.337C79.1939 210.919 79.2516 211.604 79.2516 212.39ZM77.7181 214.467V212.134C77.7181 211.595 77.6852 211.123 77.6192 210.716C77.5588 210.304 77.4681 209.952 77.3472 209.661C77.2262 209.369 77.0723 209.133 76.8855 208.952C76.7041 208.77 76.4925 208.638 76.2507 208.556C76.0143 208.468 75.7478 208.424 75.451 208.424C75.0882 208.424 74.7667 208.493 74.4864 208.63C74.2061 208.762 73.9698 208.974 73.7774 209.265C73.5905 209.556 73.4476 209.938 73.3487 210.411C73.2498 210.884 73.2003 211.458 73.2003 212.134V214.467C73.2003 215.006 73.2306 215.481 73.291 215.893C73.357 216.306 73.4531 216.663 73.5796 216.965C73.706 217.262 73.8599 217.506 74.0412 217.699C74.2226 217.891 74.4315 218.034 74.6678 218.128C74.9096 218.215 75.1762 218.259 75.4675 218.259C75.8412 218.259 76.1682 218.188 76.4485 218.045C76.7288 217.902 76.9624 217.68 77.1493 217.377C77.3417 217.07 77.4846 216.677 77.578 216.198C77.6714 215.715 77.7181 215.138 77.7181 214.467ZM88.7489 212.39V214.22C88.7489 215.204 88.6609 216.033 88.4851 216.71C88.3092 217.386 88.0564 217.93 87.7266 218.342C87.3968 218.754 86.9984 219.054 86.5312 219.24C86.0695 219.422 85.5474 219.513 84.9648 219.513C84.5031 219.513 84.0772 219.455 83.6869 219.339C83.2967 219.224 82.945 219.04 82.6317 218.787C82.3239 218.529 82.0601 218.193 81.8402 217.781C81.6204 217.369 81.4528 216.869 81.3373 216.281C81.2219 215.693 81.1642 215.006 81.1642 214.22V212.39C81.1642 211.406 81.2522 210.581 81.428 209.916C81.6094 209.251 81.865 208.718 82.1947 208.317C82.5245 207.91 82.9202 207.619 83.3819 207.443C83.8491 207.267 84.3712 207.179 84.9483 207.179C85.4155 207.179 85.8442 207.237 86.2344 207.352C86.6301 207.462 86.9819 207.641 87.2897 207.888C87.5974 208.13 87.8585 208.454 88.0729 208.861C88.2927 209.262 88.4603 209.754 88.5758 210.337C88.6912 210.919 88.7489 211.604 88.7489 212.39ZM87.2155 214.467V212.134C87.2155 211.595 87.1825 211.123 87.1165 210.716C87.0561 210.304 86.9654 209.952 86.8445 209.661C86.7236 209.369 86.5697 209.133 86.3828 208.952C86.2014 208.77 85.9898 208.638 85.748 208.556C85.5117 208.468 85.2451 208.424 84.9483 208.424C84.5856 208.424 84.264 208.493 83.9837 208.63C83.7034 208.762 83.4671 208.974 83.2747 209.265C83.0879 209.556 82.945 209.938 82.846 210.411C82.7471 210.884 82.6976 211.458 82.6976 212.134V214.467C82.6976 215.006 82.7279 215.481 82.7883 215.893C82.8543 216.306 82.9505 216.663 83.0769 216.965C83.2033 217.262 83.3572 217.506 83.5386 217.699C83.7199 217.891 83.9288 218.034 84.1651 218.128C84.4069 218.215 84.6735 218.259 84.9648 218.259C85.3385 218.259 85.6656 218.188 85.9459 218.045C86.2262 217.902 86.4597 217.68 86.6466 217.377C86.839 217.07 86.9819 216.677 87.0753 216.198C87.1687 215.715 87.2155 215.138 87.2155 214.467ZM92.4093 206.685V219.348H90.8759V206.685H92.4093ZM97.8587 210.427L93.9675 214.591L91.791 216.85L91.6673 215.226L93.2255 213.362L95.9955 210.427H97.8587ZM96.4655 219.348L93.2832 215.094L94.0746 213.733L98.2627 219.348H96.4655Z" fill="#7884AE"/>
<path d="M57.0542 240.973V243.487H55.8175V240.973H57.0542ZM56.9058 254.435V256.637H55.6774V254.435H56.9058ZM58.5546 251.83C58.5546 251.501 58.4804 251.204 58.332 250.94C58.1836 250.676 57.939 250.434 57.5983 250.214C57.2575 249.995 56.8013 249.791 56.2297 249.604C55.5372 249.39 54.9381 249.129 54.4325 248.821C53.9323 248.513 53.5449 248.131 53.2701 247.675C53.0008 247.219 52.8661 246.667 52.8661 246.018C52.8661 245.342 53.0117 244.76 53.303 244.27C53.5943 243.781 54.0065 243.405 54.5397 243.141C55.0728 242.877 55.6994 242.745 56.4193 242.745C56.98 242.745 57.4801 242.83 57.9198 243.001C58.3595 243.166 58.7305 243.413 59.0328 243.743C59.3405 244.073 59.5741 244.476 59.7335 244.955C59.8984 245.433 59.9808 245.985 59.9808 246.612H58.4639C58.4639 246.243 58.4199 245.905 58.332 245.598C58.2441 245.29 58.1122 245.023 57.9363 244.798C57.7604 244.567 57.5461 244.391 57.2932 244.27C57.0404 244.144 56.7491 244.081 56.4193 244.081C55.9577 244.081 55.5757 244.16 55.2734 244.32C54.9766 244.479 54.7568 244.705 54.6139 244.996C54.471 245.282 54.3995 245.614 54.3995 245.993C54.3995 246.345 54.471 246.653 54.6139 246.917C54.7568 247.181 54.9986 247.42 55.3394 247.634C55.6856 247.843 56.161 248.049 56.7656 248.252C57.4746 248.478 58.0764 248.744 58.5711 249.052C59.0657 249.354 59.4422 249.728 59.7005 250.173C59.9589 250.613 60.088 251.16 60.088 251.814C60.088 252.523 59.9286 253.122 59.6099 253.611C59.2911 254.095 58.8431 254.463 58.266 254.716C57.689 254.969 57.0129 255.095 56.238 255.095C55.7708 255.095 55.3091 255.032 54.8529 254.905C54.3968 254.779 53.9846 254.573 53.6163 254.287C53.2481 253.996 52.954 253.614 52.7342 253.141C52.5143 252.663 52.4044 252.078 52.4044 251.385H53.9378C53.9378 251.852 54.0038 252.24 54.1357 252.548C54.2731 252.85 54.4545 253.092 54.6798 253.273C54.9052 253.449 55.1525 253.575 55.4218 253.652C55.6966 253.724 55.9687 253.759 56.238 253.759C56.7326 253.759 57.1503 253.682 57.4911 253.529C57.8374 253.369 58.1012 253.144 58.2825 252.853C58.4639 252.561 58.5546 252.221 58.5546 251.83ZM69.5276 247.964V249.794C69.5276 250.778 69.4397 251.608 69.2638 252.284C69.0879 252.96 68.8351 253.504 68.5053 253.916C68.1756 254.328 67.7771 254.628 67.3099 254.815C66.8483 254.996 66.3261 255.087 65.7435 255.087C65.2819 255.087 64.8559 255.029 64.4657 254.914C64.0755 254.798 63.7237 254.614 63.4104 254.361C63.1026 254.103 62.8388 253.768 62.619 253.355C62.3991 252.943 62.2315 252.443 62.1161 251.855C62.0007 251.267 61.943 250.58 61.943 249.794V247.964C61.943 246.98 62.0309 246.156 62.2068 245.491C62.3881 244.825 62.6437 244.292 62.9735 243.891C63.3033 243.484 63.699 243.193 64.1607 243.017C64.6278 242.841 65.15 242.753 65.7271 242.753C66.1942 242.753 66.6229 242.811 67.0131 242.927C67.4089 243.036 67.7606 243.215 68.0684 243.462C68.3762 243.704 68.6373 244.029 68.8516 244.435C69.0715 244.836 69.2391 245.328 69.3545 245.911C69.4699 246.494 69.5276 247.178 69.5276 247.964ZM67.9942 250.041V247.708C67.9942 247.17 67.9612 246.697 67.8953 246.29C67.8348 245.878 67.7441 245.526 67.6232 245.235C67.5023 244.944 67.3484 244.707 67.1615 244.526C66.9802 244.345 66.7686 244.213 66.5267 244.13C66.2904 244.042 66.0238 243.998 65.7271 243.998C65.3643 243.998 65.0428 244.067 64.7625 244.204C64.4822 244.336 64.2458 244.548 64.0535 244.839C63.8666 245.131 63.7237 245.512 63.6248 245.985C63.5258 246.458 63.4764 247.032 63.4764 247.708V250.041C63.4764 250.58 63.5066 251.055 63.5671 251.468C63.633 251.88 63.7292 252.237 63.8556 252.539C63.982 252.836 64.1359 253.081 64.3173 253.273C64.4987 253.465 64.7075 253.608 64.9439 253.702C65.1857 253.79 65.4522 253.834 65.7435 253.834C66.1173 253.834 66.4443 253.762 66.7246 253.619C67.0049 253.476 67.2385 253.254 67.4254 252.952C67.6177 252.644 67.7606 252.251 67.8541 251.773C67.9475 251.289 67.9942 250.712 67.9942 250.041Z" fill="#7884AE"/>
<line x1="128.045" y1="106.941" x2="396.502" y2="106.941" stroke="#D9D9D9" stroke-width="0.844206"/>
<line x1="128.045" y1="142.396" x2="396.502" y2="142.396" stroke="#D9D9D9" stroke-width="0.844206"/>
<line x1="128.045" y1="177.853" x2="396.502" y2="177.853" stroke="#D9D9D9" stroke-width="0.844206"/>
<line x1="128.045" y1="213.31" x2="396.502" y2="213.31" stroke="#D9D9D9" stroke-width="0.844206"/>
<line x1="128.045" y1="248.767" x2="396.502" y2="248.767" stroke="#D9D9D9" stroke-width="0.844206"/>
<rect x="128.045" y="191.494" width="15.1957" height="57.406" rx="4.22103" fill="#1E1E1E"/>
<rect x="166.456" y="223.574" width="15.1957" height="25.3262" rx="4.22103" fill="#1E1E1E"/>
<rect x="204.868" y="177.988" width="15.1957" height="70.9133" rx="4.22103" fill="#1E1E1E"/>
<rect x="243.279" y="158.57" width="15.1957" height="90.3301" rx="4.22103" fill="#1E1E1E"/>
<rect x="281.69" y="107.074" width="15.1957" height="141.827" rx="4.22103" fill="#1E1E1E"/>
<rect x="320.102" y="122.27" width="15.1957" height="126.631" rx="4.22103" fill="#1E1E1E"/>
<rect x="358.513" y="153.506" width="15.1957" height="95.3953" rx="4.22103" fill="#1E1E1E"/>
<path d="M133.189 267.541V260.741H134.455V267.541C134.455 268.174 134.326 268.708 134.066 269.143C133.807 269.579 133.448 269.911 132.991 270.139C132.538 270.364 132.017 270.476 131.428 270.476C130.839 270.476 130.316 270.375 129.858 270.172C129.401 269.97 129.043 269.662 128.783 269.249C128.524 268.836 128.394 268.315 128.394 267.686H129.667C129.667 268.09 129.742 268.422 129.891 268.682C130.041 268.941 130.248 269.132 130.511 269.256C130.78 269.379 131.085 269.44 131.428 269.44C131.762 269.44 132.061 269.37 132.325 269.229C132.593 269.084 132.804 268.871 132.958 268.589C133.112 268.304 133.189 267.954 133.189 267.541ZM140.635 269.124V265.45C140.635 265.169 140.578 264.925 140.464 264.718C140.354 264.507 140.187 264.344 139.962 264.23C139.738 264.116 139.461 264.058 139.131 264.058C138.824 264.058 138.553 264.111 138.32 264.217C138.092 264.322 137.911 264.461 137.779 264.632C137.652 264.804 137.588 264.988 137.588 265.186H136.368C136.368 264.931 136.434 264.678 136.566 264.428C136.698 264.177 136.887 263.951 137.133 263.748C137.384 263.542 137.683 263.379 138.03 263.26C138.382 263.137 138.773 263.076 139.204 263.076C139.723 263.076 140.18 263.164 140.576 263.339C140.976 263.515 141.288 263.781 141.512 264.138C141.741 264.489 141.855 264.931 141.855 265.463V268.787C141.855 269.025 141.875 269.277 141.915 269.546C141.959 269.814 142.022 270.045 142.106 270.238V270.344H140.833C140.772 270.203 140.723 270.016 140.688 269.783C140.653 269.546 140.635 269.326 140.635 269.124ZM140.846 266.017L140.859 266.875H139.626C139.279 266.875 138.969 266.903 138.696 266.96C138.424 267.013 138.195 267.094 138.01 267.204C137.826 267.314 137.685 267.453 137.588 267.62C137.491 267.783 137.443 267.974 137.443 268.194C137.443 268.418 137.494 268.622 137.595 268.807C137.696 268.992 137.848 269.139 138.05 269.249C138.256 269.354 138.509 269.407 138.808 269.407C139.182 269.407 139.512 269.328 139.798 269.17C140.083 269.011 140.31 268.818 140.477 268.589C140.648 268.361 140.741 268.139 140.754 267.923L141.275 268.51C141.244 268.695 141.161 268.899 141.024 269.124C140.888 269.348 140.706 269.563 140.477 269.77C140.253 269.972 139.984 270.141 139.672 270.278C139.365 270.41 139.017 270.476 138.63 270.476C138.147 270.476 137.722 270.381 137.357 270.192C136.997 270.003 136.715 269.75 136.513 269.434C136.315 269.113 136.216 268.754 136.216 268.359C136.216 267.976 136.291 267.64 136.441 267.349C136.59 267.055 136.806 266.811 137.087 266.617C137.368 266.42 137.707 266.27 138.103 266.169C138.498 266.068 138.94 266.017 139.428 266.017H140.846ZM144.995 264.731V270.344H143.775V263.208H144.929L144.995 264.731ZM144.705 266.505L144.197 266.485C144.201 265.997 144.274 265.547 144.414 265.133C144.555 264.716 144.753 264.353 145.008 264.045C145.263 263.737 145.566 263.5 145.918 263.333C146.274 263.161 146.668 263.076 147.099 263.076C147.45 263.076 147.767 263.124 148.048 263.221C148.33 263.313 148.569 263.463 148.767 263.669C148.97 263.876 149.123 264.144 149.229 264.474C149.335 264.799 149.387 265.197 149.387 265.668V270.344H148.161V265.654C148.161 265.281 148.106 264.982 147.996 264.757C147.886 264.529 147.725 264.364 147.514 264.263C147.303 264.157 147.044 264.105 146.736 264.105C146.433 264.105 146.156 264.168 145.905 264.296C145.659 264.423 145.445 264.599 145.265 264.823C145.089 265.048 144.951 265.305 144.85 265.595C144.753 265.881 144.705 266.184 144.705 266.505Z" fill="#7884AE"/>
<path d="M166.94 260.741V270.344H165.667V260.741H166.94ZM170.963 265.061V266.103H166.663V265.061H170.963ZM171.616 260.741V261.783H166.663V260.741H171.616ZM175.764 270.476C175.267 270.476 174.817 270.392 174.412 270.225C174.012 270.054 173.667 269.814 173.377 269.506C173.091 269.198 172.871 268.833 172.717 268.411C172.563 267.989 172.486 267.528 172.486 267.026V266.749C172.486 266.169 172.572 265.652 172.743 265.199C172.915 264.742 173.148 264.355 173.443 264.039C173.737 263.722 174.071 263.482 174.445 263.32C174.819 263.157 175.206 263.076 175.606 263.076C176.116 263.076 176.556 263.164 176.925 263.339C177.299 263.515 177.604 263.762 177.842 264.078C178.079 264.39 178.255 264.76 178.369 265.186C178.484 265.608 178.541 266.07 178.541 266.571V267.119H173.212V266.123H177.321V266.03C177.303 265.714 177.237 265.406 177.123 265.107C177.013 264.808 176.837 264.562 176.595 264.368C176.353 264.175 176.024 264.078 175.606 264.078C175.329 264.078 175.074 264.138 174.841 264.256C174.608 264.371 174.408 264.542 174.241 264.771C174.074 264.999 173.944 265.279 173.851 265.608C173.759 265.938 173.713 266.318 173.713 266.749V267.026C173.713 267.365 173.759 267.684 173.851 267.983C173.948 268.277 174.087 268.537 174.267 268.761C174.452 268.985 174.674 269.161 174.933 269.288C175.197 269.416 175.496 269.48 175.83 269.48C176.261 269.48 176.626 269.392 176.925 269.216C177.224 269.04 177.486 268.805 177.71 268.51L178.448 269.097C178.295 269.33 178.099 269.552 177.861 269.763C177.624 269.974 177.332 270.146 176.984 270.278C176.641 270.41 176.235 270.476 175.764 270.476ZM179.959 260.213H181.186V268.959L181.08 270.344H179.959V260.213ZM186.007 266.716V266.855C186.007 267.374 185.945 267.855 185.822 268.299C185.699 268.739 185.519 269.121 185.281 269.447C185.044 269.772 184.754 270.025 184.411 270.205C184.068 270.386 183.674 270.476 183.23 270.476C182.777 270.476 182.379 270.399 182.036 270.245C181.698 270.087 181.412 269.86 181.179 269.565C180.946 269.271 180.759 268.915 180.618 268.497C180.482 268.079 180.387 267.609 180.335 267.086V266.479C180.387 265.951 180.482 265.479 180.618 265.061C180.759 264.643 180.946 264.287 181.179 263.992C181.412 263.693 181.698 263.467 182.036 263.313C182.375 263.155 182.768 263.076 183.217 263.076C183.665 263.076 184.063 263.164 184.411 263.339C184.758 263.511 185.048 263.757 185.281 264.078C185.519 264.399 185.699 264.784 185.822 265.232C185.945 265.676 186.007 266.171 186.007 266.716ZM184.78 266.855V266.716C184.78 266.36 184.747 266.026 184.681 265.714C184.615 265.397 184.51 265.12 184.364 264.883C184.219 264.641 184.028 264.452 183.791 264.316C183.553 264.175 183.261 264.105 182.913 264.105C182.606 264.105 182.337 264.157 182.109 264.263C181.885 264.368 181.693 264.511 181.535 264.692C181.377 264.867 181.247 265.07 181.146 265.298C181.049 265.523 180.977 265.756 180.928 265.997V267.587C180.999 267.895 181.113 268.191 181.271 268.477C181.434 268.759 181.649 268.99 181.918 269.17C182.19 269.35 182.527 269.44 182.927 269.44C183.256 269.44 183.538 269.374 183.771 269.242C184.008 269.106 184.2 268.919 184.345 268.682C184.494 268.444 184.604 268.169 184.674 267.857C184.745 267.545 184.78 267.211 184.78 266.855Z" fill="#7884AE"/>
<path d="M202.576 260.741H203.81L206.956 268.57L210.095 260.741H211.335L207.43 270.344H206.468L202.576 260.741ZM202.174 260.741H203.262L203.44 266.598V270.344H202.174V260.741ZM210.642 260.741H211.731V270.344H210.464V266.598L210.642 260.741ZM217.99 269.124V265.45C217.99 265.169 217.932 264.925 217.818 264.718C217.708 264.507 217.541 264.344 217.317 264.23C217.093 264.116 216.816 264.058 216.486 264.058C216.178 264.058 215.908 264.111 215.675 264.217C215.446 264.322 215.266 264.461 215.134 264.632C215.006 264.804 214.943 264.988 214.943 265.186H213.722C213.722 264.931 213.788 264.678 213.92 264.428C214.052 264.177 214.241 263.951 214.487 263.748C214.738 263.542 215.037 263.379 215.384 263.26C215.736 263.137 216.128 263.076 216.558 263.076C217.077 263.076 217.535 263.164 217.93 263.339C218.33 263.515 218.643 263.781 218.867 264.138C219.095 264.489 219.21 264.931 219.21 265.463V268.787C219.21 269.025 219.23 269.277 219.269 269.546C219.313 269.814 219.377 270.045 219.46 270.238V270.344H218.187C218.126 270.203 218.078 270.016 218.042 269.783C218.007 269.546 217.99 269.326 217.99 269.124ZM218.201 266.017L218.214 266.875H216.981C216.633 266.875 216.323 266.903 216.051 266.96C215.778 267.013 215.549 267.094 215.365 267.204C215.18 267.314 215.039 267.453 214.943 267.62C214.846 267.783 214.797 267.974 214.797 268.194C214.797 268.418 214.848 268.622 214.949 268.807C215.05 268.992 215.202 269.139 215.404 269.249C215.611 269.354 215.864 269.407 216.163 269.407C216.536 269.407 216.866 269.328 217.152 269.17C217.438 269.011 217.664 268.818 217.831 268.589C218.003 268.361 218.095 268.139 218.108 267.923L218.629 268.51C218.599 268.695 218.515 268.899 218.379 269.124C218.242 269.348 218.06 269.563 217.831 269.77C217.607 269.972 217.339 270.141 217.027 270.278C216.719 270.41 216.372 270.476 215.985 270.476C215.501 270.476 215.077 270.381 214.712 270.192C214.351 270.003 214.07 269.75 213.868 269.434C213.67 269.113 213.571 268.754 213.571 268.359C213.571 267.976 213.645 267.64 213.795 267.349C213.944 267.055 214.16 266.811 214.441 266.617C214.723 266.42 215.061 266.27 215.457 266.169C215.853 266.068 216.295 266.017 216.783 266.017H218.201ZM222.349 264.329V270.344H221.129V263.208H222.316L222.349 264.329ZM224.578 263.168L224.572 264.302C224.471 264.28 224.374 264.267 224.282 264.263C224.194 264.254 224.093 264.25 223.978 264.25C223.697 264.25 223.448 264.294 223.233 264.382C223.017 264.469 222.835 264.593 222.686 264.751C222.536 264.909 222.417 265.098 222.329 265.318C222.246 265.534 222.191 265.771 222.164 266.03L221.822 266.228C221.822 265.797 221.863 265.393 221.947 265.015C222.035 264.637 222.169 264.302 222.349 264.012C222.529 263.718 222.758 263.489 223.035 263.326C223.316 263.159 223.651 263.076 224.038 263.076C224.126 263.076 224.227 263.087 224.341 263.109C224.455 263.126 224.534 263.146 224.578 263.168Z" fill="#7884AE"/>
<path d="M243.236 261.592L240.057 270.344H238.758L242.418 260.741H243.256L243.236 261.592ZM245.901 270.344L242.715 261.592L242.695 260.741H243.533L247.207 270.344H245.901ZM245.736 266.789V267.831H240.341V266.789H245.736ZM249.528 264.579V273.087H248.301V263.208H249.423L249.528 264.579ZM254.336 266.716V266.855C254.336 267.374 254.275 267.855 254.151 268.299C254.028 268.739 253.848 269.121 253.611 269.447C253.378 269.772 253.09 270.025 252.747 270.205C252.404 270.386 252.01 270.476 251.566 270.476C251.113 270.476 250.713 270.401 250.366 270.251C250.018 270.102 249.724 269.884 249.482 269.598C249.24 269.313 249.047 268.97 248.902 268.57C248.761 268.169 248.664 267.719 248.611 267.218V266.479C248.664 265.951 248.763 265.479 248.908 265.061C249.053 264.643 249.245 264.287 249.482 263.992C249.724 263.693 250.016 263.467 250.359 263.313C250.702 263.155 251.098 263.076 251.546 263.076C251.995 263.076 252.393 263.164 252.74 263.339C253.087 263.511 253.38 263.757 253.617 264.078C253.855 264.399 254.033 264.784 254.151 265.232C254.275 265.676 254.336 266.171 254.336 266.716ZM253.109 266.855V266.716C253.109 266.36 253.072 266.026 252.997 265.714C252.923 265.397 252.806 265.12 252.648 264.883C252.494 264.641 252.296 264.452 252.054 264.316C251.812 264.175 251.524 264.105 251.19 264.105C250.882 264.105 250.614 264.157 250.386 264.263C250.161 264.368 249.97 264.511 249.812 264.692C249.653 264.867 249.524 265.07 249.423 265.298C249.326 265.523 249.253 265.756 249.205 265.997V267.706C249.293 268.013 249.416 268.304 249.574 268.576C249.733 268.844 249.944 269.062 250.207 269.229C250.471 269.392 250.803 269.473 251.203 269.473C251.533 269.473 251.817 269.405 252.054 269.269C252.296 269.128 252.494 268.937 252.648 268.695C252.806 268.453 252.923 268.176 252.997 267.864C253.072 267.547 253.109 267.211 253.109 266.855ZM257.113 264.329V270.344H255.893V263.208H257.08L257.113 264.329ZM259.342 263.168L259.335 264.302C259.234 264.28 259.138 264.267 259.045 264.263C258.957 264.254 258.856 264.25 258.742 264.25C258.46 264.25 258.212 264.294 257.997 264.382C257.781 264.469 257.599 264.593 257.449 264.751C257.3 264.909 257.181 265.098 257.093 265.318C257.009 265.534 256.955 265.771 256.928 266.03L256.585 266.228C256.585 265.797 256.627 265.393 256.71 265.015C256.798 264.637 256.933 264.302 257.113 264.012C257.293 263.718 257.522 263.489 257.799 263.326C258.08 263.159 258.414 263.076 258.801 263.076C258.889 263.076 258.99 263.087 259.105 263.109C259.219 263.126 259.298 263.146 259.342 263.168Z" fill="#7884AE"/>
<path d="M274.591 260.741H275.824L278.97 268.57L282.11 260.741H283.35L279.445 270.344H278.482L274.591 260.741ZM274.189 260.741H275.277L275.455 266.598V270.344H274.189V260.741ZM282.657 260.741H283.745V270.344H282.479V266.598L282.657 260.741ZM290.004 269.124V265.45C290.004 265.169 289.947 264.925 289.833 264.718C289.723 264.507 289.556 264.344 289.332 264.23C289.107 264.116 288.83 264.058 288.501 264.058C288.193 264.058 287.922 264.111 287.689 264.217C287.461 264.322 287.28 264.461 287.148 264.632C287.021 264.804 286.957 264.988 286.957 265.186H285.737C285.737 264.931 285.803 264.678 285.935 264.428C286.067 264.177 286.256 263.951 286.502 263.748C286.753 263.542 287.052 263.379 287.399 263.26C287.751 263.137 288.142 263.076 288.573 263.076C289.092 263.076 289.549 263.164 289.945 263.339C290.345 263.515 290.657 263.781 290.881 264.138C291.11 264.489 291.224 264.931 291.224 265.463V268.787C291.224 269.025 291.244 269.277 291.284 269.546C291.328 269.814 291.391 270.045 291.475 270.238V270.344H290.202C290.141 270.203 290.092 270.016 290.057 269.783C290.022 269.546 290.004 269.326 290.004 269.124ZM290.215 266.017L290.229 266.875H288.995C288.648 266.875 288.338 266.903 288.065 266.96C287.793 267.013 287.564 267.094 287.379 267.204C287.195 267.314 287.054 267.453 286.957 267.62C286.86 267.783 286.812 267.974 286.812 268.194C286.812 268.418 286.863 268.622 286.964 268.807C287.065 268.992 287.217 269.139 287.419 269.249C287.626 269.354 287.878 269.407 288.177 269.407C288.551 269.407 288.881 269.328 289.167 269.17C289.452 269.011 289.679 268.818 289.846 268.589C290.017 268.361 290.11 268.139 290.123 267.923L290.644 268.51C290.613 268.695 290.53 268.899 290.393 269.124C290.257 269.348 290.075 269.563 289.846 269.77C289.622 269.972 289.354 270.141 289.041 270.278C288.734 270.41 288.386 270.476 287.999 270.476C287.516 270.476 287.091 270.381 286.726 270.192C286.366 270.003 286.084 269.75 285.882 269.434C285.684 269.113 285.585 268.754 285.585 268.359C285.585 267.976 285.66 267.64 285.81 267.349C285.959 267.055 286.175 266.811 286.456 266.617C286.737 266.42 287.076 266.27 287.472 266.169C287.867 266.068 288.309 266.017 288.797 266.017H290.215ZM295.043 269.605L297.028 263.208H298.334L295.472 271.445C295.406 271.621 295.318 271.81 295.208 272.012C295.102 272.219 294.966 272.415 294.799 272.599C294.632 272.784 294.43 272.934 294.192 273.048C293.959 273.167 293.68 273.226 293.355 273.226C293.258 273.226 293.135 273.213 292.985 273.186C292.836 273.16 292.73 273.138 292.669 273.12L292.662 272.131C292.697 272.135 292.752 272.14 292.827 272.144C292.906 272.153 292.961 272.157 292.992 272.157C293.269 272.157 293.504 272.12 293.698 272.045C293.891 271.975 294.054 271.854 294.186 271.683C294.322 271.516 294.439 271.285 294.535 270.99L295.043 269.605ZM293.586 263.208L295.439 268.748L295.755 270.034L294.878 270.482L292.253 263.208H293.586Z" fill="#7884AE"/>
<path d="M317.725 267.541V260.741H318.992V267.541C318.992 268.174 318.862 268.708 318.603 269.143C318.343 269.579 317.985 269.911 317.528 270.139C317.075 270.364 316.554 270.476 315.964 270.476C315.375 270.476 314.852 270.375 314.395 270.172C313.938 269.97 313.579 269.662 313.32 269.249C313.06 268.836 312.931 268.315 312.931 267.686H314.204C314.204 268.09 314.278 268.422 314.428 268.682C314.577 268.941 314.784 269.132 315.048 269.256C315.316 269.379 315.622 269.44 315.964 269.44C316.299 269.44 316.598 269.37 316.861 269.229C317.13 269.084 317.341 268.871 317.495 268.589C317.648 268.304 317.725 267.954 317.725 267.541ZM325.33 268.695V263.208H326.557V270.344H325.389L325.33 268.695ZM325.561 267.191L326.069 267.178C326.069 267.653 326.018 268.093 325.917 268.497C325.82 268.897 325.662 269.245 325.442 269.539C325.222 269.834 324.934 270.065 324.578 270.232C324.222 270.394 323.789 270.476 323.279 270.476C322.931 270.476 322.613 270.425 322.322 270.324C322.037 270.223 321.79 270.067 321.584 269.856C321.377 269.645 321.217 269.37 321.102 269.031C320.992 268.693 320.937 268.286 320.937 267.811V263.208H322.158V267.824C322.158 268.145 322.193 268.411 322.263 268.622C322.338 268.829 322.437 268.994 322.56 269.117C322.687 269.236 322.828 269.319 322.982 269.368C323.14 269.416 323.303 269.44 323.47 269.44C323.989 269.44 324.4 269.341 324.703 269.143C325.007 268.941 325.224 268.671 325.356 268.332C325.493 267.989 325.561 267.609 325.561 267.191ZM329.637 264.731V270.344H328.417V263.208H329.571L329.637 264.731ZM329.346 266.505L328.839 266.485C328.843 265.997 328.916 265.547 329.056 265.133C329.197 264.716 329.395 264.353 329.65 264.045C329.905 263.737 330.208 263.5 330.56 263.333C330.916 263.161 331.31 263.076 331.741 263.076C332.092 263.076 332.409 263.124 332.69 263.221C332.972 263.313 333.211 263.463 333.409 263.669C333.611 263.876 333.765 264.144 333.871 264.474C333.976 264.799 334.029 265.197 334.029 265.668V270.344H332.802V265.654C332.802 265.281 332.747 264.982 332.638 264.757C332.528 264.529 332.367 264.364 332.156 264.263C331.945 264.157 331.686 264.105 331.378 264.105C331.074 264.105 330.797 264.168 330.547 264.296C330.301 264.423 330.087 264.599 329.907 264.823C329.731 265.048 329.593 265.305 329.492 265.595C329.395 265.881 329.346 266.184 329.346 266.505ZM338.844 270.476C338.347 270.476 337.896 270.392 337.492 270.225C337.092 270.054 336.746 269.814 336.456 269.506C336.17 269.198 335.951 268.833 335.797 268.411C335.643 267.989 335.566 267.528 335.566 267.026V266.749C335.566 266.169 335.652 265.652 335.823 265.199C335.995 264.742 336.228 264.355 336.522 264.039C336.817 263.722 337.151 263.482 337.525 263.32C337.898 263.157 338.285 263.076 338.685 263.076C339.196 263.076 339.635 263.164 340.005 263.339C340.378 263.515 340.684 263.762 340.921 264.078C341.159 264.39 341.335 264.76 341.449 265.186C341.563 265.608 341.62 266.07 341.62 266.571V267.119H336.291V266.123H340.4V266.03C340.383 265.714 340.317 265.406 340.202 265.107C340.093 264.808 339.917 264.562 339.675 264.368C339.433 264.175 339.103 264.078 338.685 264.078C338.408 264.078 338.153 264.138 337.92 264.256C337.687 264.371 337.487 264.542 337.32 264.771C337.153 264.999 337.023 265.279 336.931 265.608C336.839 265.938 336.793 266.318 336.793 266.749V267.026C336.793 267.365 336.839 267.684 336.931 267.983C337.028 268.277 337.166 268.537 337.347 268.761C337.531 268.985 337.753 269.161 338.013 269.288C338.277 269.416 338.576 269.48 338.91 269.48C339.341 269.48 339.706 269.392 340.005 269.216C340.304 269.04 340.565 268.805 340.789 268.51L341.528 269.097C341.374 269.33 341.179 269.552 340.941 269.763C340.704 269.974 340.411 270.146 340.064 270.278C339.721 270.41 339.314 270.476 338.844 270.476Z" fill="#7884AE"/>
<path d="M361.233 267.541V260.741H362.499V267.541C362.499 268.174 362.369 268.708 362.11 269.143C361.851 269.579 361.492 269.911 361.035 270.139C360.582 270.364 360.061 270.476 359.472 270.476C358.883 270.476 358.359 270.375 357.902 270.172C357.445 269.97 357.086 269.662 356.827 269.249C356.568 268.836 356.438 268.315 356.438 267.686H357.711C357.711 268.09 357.786 268.422 357.935 268.682C358.085 268.941 358.291 269.132 358.555 269.256C358.823 269.379 359.129 269.44 359.472 269.44C359.806 269.44 360.105 269.37 360.369 269.229C360.637 269.084 360.848 268.871 361.002 268.589C361.156 268.304 361.233 267.954 361.233 267.541ZM368.837 268.695V263.208H370.064V270.344H368.897L368.837 268.695ZM369.068 267.191L369.576 267.178C369.576 267.653 369.525 268.093 369.424 268.497C369.327 268.897 369.169 269.245 368.949 269.539C368.729 269.834 368.441 270.065 368.085 270.232C367.729 270.394 367.296 270.476 366.786 270.476C366.439 270.476 366.12 270.425 365.83 270.324C365.544 270.223 365.298 270.067 365.091 269.856C364.884 269.645 364.724 269.37 364.61 269.031C364.5 268.693 364.445 268.286 364.445 267.811V263.208H365.665V267.824C365.665 268.145 365.7 268.411 365.77 268.622C365.845 268.829 365.944 268.994 366.067 269.117C366.195 269.236 366.335 269.319 366.489 269.368C366.648 269.416 366.81 269.44 366.977 269.44C367.496 269.44 367.907 269.341 368.211 269.143C368.514 268.941 368.732 268.671 368.864 268.332C369 267.989 369.068 267.609 369.068 267.191ZM373.25 260.213V270.344H372.023V260.213H373.25Z" fill="#7884AE"/>
</g>
<defs>
<filter id="filter0_d_254_2963" x="0.845215" y="0" width="456.31" height="329.109" filterUnits="userSpaceOnUse" color-interpolation-filters="sRGB">
<feFlood flood-opacity="0" result="BackgroundImageFix"/>
<feColorMatrix in="SourceAlpha" type="matrix" values="0 0 0 0 0 0 0 0 0 0 0 0 0 0 0 0 0 0 127 0" result="hardAlpha"/>
<feOffset dx="10" dy="10"/>
<feComposite in2="hardAlpha" operator="out"/>
<feColorMatrix type="matrix" values="0 0 0 0 0.703333 0 0 0 0 0.942581 0 0 0 0 1 0 0 0 1 0"/>
<feBlend mode="normal" in2="BackgroundImageFix" result="effect1_dropShadow_254_2963"/>
<feBlend mode="normal" in="SourceGraphic" in2="effect1_dropShadow_254_2963" result="shape"/>
</filter>
</defs>
</svg>
