<svg width="20" height="21" viewBox="0 0 20 21" fill="none" xmlns="http://www.w3.org/2000/svg">
<path d="M5.78255 4.27688C5.78233 4.7189 5.60652 5.14274 5.29381 5.45514C4.98109 5.76755 4.55708 5.94293 4.11505 5.94271C3.67302 5.94249 3.24919 5.76668 2.93678 5.45396C2.62438 5.14125 2.449 4.71724 2.44922 4.27521C2.44944 3.83318 2.62525 3.40935 2.93796 3.09694C3.25068 2.78454 3.67469 2.60915 4.11672 2.60938C4.55875 2.6096 4.98258 2.7854 5.29499 3.09812C5.60739 3.41084 5.78277 3.83485 5.78255 4.27688ZM5.83255 7.17687H2.49922V17.6102H5.83255V7.17687ZM11.0992 7.17687H7.78255V17.6102H11.0659V12.1352C11.0659 9.08521 15.0409 8.80188 15.0409 12.1352V17.6102H18.3326V11.0019C18.3326 5.86021 12.4492 6.05188 11.0659 8.57688L11.0992 7.17687Z" fill="#F7FAFC"/>
</svg>
