<svg width="20" height="21" viewBox="0 0 20 21" fill="none" xmlns="http://www.w3.org/2000/svg">
<path d="M18.7165 5.10807C18.0749 5.39974 17.3832 5.59141 16.6665 5.68307C17.3999 5.24141 17.9665 4.54141 18.2332 3.69974C17.5415 4.11641 16.7749 4.40807 15.9665 4.57474C15.3082 3.85807 14.3832 3.44141 13.3332 3.44141C11.3749 3.44141 9.77487 5.04141 9.77487 7.01641C9.77487 7.29974 9.8082 7.57474 9.86654 7.83307C6.89987 7.68307 4.2582 6.25807 2.49987 4.09974C2.19154 4.62474 2.01654 5.24141 2.01654 5.89141C2.01654 7.13307 2.64154 8.23307 3.6082 8.85807C3.01654 8.85807 2.46654 8.69141 1.9832 8.44141V8.46641C1.9832 10.1997 3.21654 11.6497 4.84987 11.9747C4.32548 12.1182 3.77495 12.1382 3.24154 12.0331C3.46788 12.7435 3.91115 13.3651 4.50905 13.8105C5.10695 14.256 5.82941 14.5028 6.57487 14.5164C5.31123 15.5168 3.74487 16.0575 2.1332 16.0497C1.84987 16.0497 1.56654 16.0331 1.2832 15.9997C2.86654 17.0164 4.74987 17.6081 6.76654 17.6081C13.3332 17.6081 16.9415 12.1581 16.9415 7.43307C16.9415 7.27474 16.9415 7.12474 16.9332 6.96641C17.6332 6.46641 18.2332 5.83307 18.7165 5.10807Z" fill="#F7FAFC"/>
</svg>
